<?xml version="1.0" encoding="UTF-8" standalone="no"?>
<svg
   width="24"
   height="23.600077"
   version="1.1"
   id="svg1"
   sodipodi:docname="github-mark.svg"
   inkscape:version="1.3.2 (091e20e, 2023-11-25, custom)"
   xmlns:inkscape="http://www.inkscape.org/namespaces/inkscape"
   xmlns:sodipodi="http://sodipodi.sourceforge.net/DTD/sodipodi-0.dtd"
   xmlns="http://www.w3.org/2000/svg"
   xmlns:svg="http://www.w3.org/2000/svg">
  <defs
     id="defs1" />
  <sodipodi:namedview
     id="namedview1"
     pagecolor="#ffffff"
     bordercolor="#000000"
     borderopacity="0.25"
     inkscape:showpageshadow="2"
     inkscape:pageopacity="0.0"
     inkscape:pagecheckerboard="0"
     inkscape:deskcolor="#d1d1d1"
     inkscape:zoom="8.1979167"
     inkscape:cx="48.975858"
     inkscape:cy="48"
     inkscape:window-width="1920"
     inkscape:window-height="1001"
     inkscape:window-x="-9"
     inkscape:window-y="-9"
     inkscape:window-maximized="1"
     inkscape:current-layer="svg1" />
  <path
     fill-rule="evenodd"
     clip-rule="evenodd"
     d="M 12.00993,0 C 5.3687489,0 0,5.408328 0,12.099169 c 0,5.348344 3.4399428,9.875607 8.2120547,11.477946 0.596637,0.120459 0.8151828,-0.260337 0.8151828,-0.580657 0,-0.280496 -0.01967,-1.241949 -0.01967,-2.243719 -3.3408708,0.721275 -4.0365783,-1.442303 -4.0365783,-1.442303 -0.5368996,-1.402231 -1.332416,-1.762623 -1.332416,-1.762623 -1.0934657,-0.741186 0.079651,-0.741186 0.079651,-0.741186 1.2129409,0.08014 1.849403,1.241948 1.849403,1.241948 1.0735527,1.842765 2.8034803,1.322091 3.4994341,1.001524 0.099316,-0.781257 0.4176698,-1.32209 0.7556904,-1.622498 -2.6645844,-0.280495 -5.4680647,-1.32209 -5.4680647,-5.969565 0,-1.32209 0.4769156,-2.403757 1.2326073,-3.2449979 C 5.4680638,7.9126305 5.0503938,6.6704358 5.7067682,5.0078662 c 0,0 1.0140615,-0.3205661 3.3005553,1.2419487 A 11.54678,11.54678 0 0 1 12.009929,5.8491074 c 1.014061,0 2.047789,0.1403703 3.00236,0.4007075 2.286739,-1.5625148 3.3008,-1.2419487 3.3008,-1.2419487 0.656374,1.6625696 0.238459,2.9047643 0.119229,3.2051719 0.775604,0.8412409 1.232854,1.9229079 1.232854,3.2449979 0,4.647475 -2.803482,5.668911 -5.487979,5.969565 0.437584,0.380548 0.815183,1.101578 0.815183,2.243473 0,1.622498 -0.01967,2.924677 -0.01967,3.325139 0,0.320565 0.218792,0.701361 0.815183,0.581148 4.772116,-1.602831 8.212058,-6.129848 8.212058,-11.478192 C 24.019615,5.408328 18.6312,0 12.00993,0 Z"
     fill="#24292f"
     id="path1"
     style="fill:#ffffff;fill-opacity:1;stroke-width:0.245833"
     inkscape:export-filename="github-logo-black.svg"
     inkscape:export-xdpi="25"
     inkscape:export-ydpi="25" />
</svg>
