<?xml version="1.0" encoding="UTF-8" standalone="no"?>
<svg
   width="24"
   height="24"
   fill="currentColor"
   class="bi bi-linkedin"
   viewBox="0 0 24 24"
   version="1.1"
   id="svg1"
   sodipodi:docname="linkedin-logo-black.svg"
   inkscape:version="1.3.2 (091e20e, 2023-11-25, custom)"
   xmlns:inkscape="http://www.inkscape.org/namespaces/inkscape"
   xmlns:sodipodi="http://sodipodi.sourceforge.net/DTD/sodipodi-0.dtd"
   xmlns="http://www.w3.org/2000/svg"
   xmlns:svg="http://www.w3.org/2000/svg">
  <defs
     id="defs1" />
  <sodipodi:namedview
     id="namedview1"
     pagecolor="#ffffff"
     bordercolor="#000000"
     borderopacity="0.25"
     inkscape:showpageshadow="2"
     inkscape:pageopacity="0.0"
     inkscape:pagecheckerboard="0"
     inkscape:deskcolor="#d1d1d1"
     showgrid="false"
     inkscape:zoom="32.791667"
     inkscape:cx="12"
     inkscape:cy="12"
     inkscape:window-width="1920"
     inkscape:window-height="1001"
     inkscape:window-x="-9"
     inkscape:window-y="-9"
     inkscape:window-maximized="1"
     inkscape:current-layer="svg1" />
  <path
     d="M 0,1.719 C 0,0.7695 0.789,0 1.7625,0 h 20.475 C 23.211,0 24,0.7695 24,1.719 V 22.281 C 24,23.2305 23.211,24 22.2375,24 H 1.7625 C 0.789,24 0,23.2305 0,22.281 Z M 7.4145,20.091 V 9.2535 H 3.813 V 20.091 Z M 5.6145,7.773 C 6.87,7.773 7.6515,6.942 7.6515,5.901 7.629,4.8375 6.8715,4.029 5.6385,4.029 4.4055,4.029 3.6,4.839 3.6,5.901 c 0,1.041 0.7815,1.872 1.9905,1.872 z m 7.362,12.318 v -6.0525 c 0,-0.324 0.024,-0.648 0.12,-0.879 0.2595,-0.6465 0.852,-1.317 1.848,-1.317 1.3035,0 1.824,0.993 1.824,2.451 V 20.091 H 20.37 v -6.216 c 0,-3.33 -1.776,-4.878 -4.146,-4.878 -1.911,0 -2.7675,1.05 -3.2475,1.7895 v 0.0375 h -0.024 l 0.024,-0.0375 v -1.533 h -3.6 c 0.045,1.017 0,10.8375 0,10.8375 z"
     id="path1"
     style="stroke-width:1.49999;fill:#ffffff;fill-opacity:1"
     inkscape:export-filename="linkedin-logo-black.svg"
     inkscape:export-xdpi="96"
     inkscape:export-ydpi="96" />
</svg>
