<?xml version="1.0" encoding="UTF-8" standalone="no"?>
<!-- Created with Inkscape (http://www.inkscape.org/) -->

<svg
   width="64.666794mm"
   height="64.666786mm"
   viewBox="0 0 64.666794 64.666786"
   version="1.1"
   id="svg1"
   inkscape:export-filename="website_favicon4.svg"
   inkscape:export-xdpi="96"
   inkscape:export-ydpi="96"
   xmlns:inkscape="http://www.inkscape.org/namespaces/inkscape"
   xmlns:sodipodi="http://sodipodi.sourceforge.net/DTD/sodipodi-0.dtd"
   xmlns="http://www.w3.org/2000/svg"
   xmlns:svg="http://www.w3.org/2000/svg">
  <sodipodi:namedview
     id="namedview1"
     pagecolor="#ffffff"
     bordercolor="#000000"
     borderopacity="0.25"
     inkscape:showpageshadow="2"
     inkscape:pageopacity="0.0"
     inkscape:pagecheckerboard="0"
     inkscape:deskcolor="#d1d1d1"
     inkscape:document-units="mm"
     inkscape:zoom="1.4627806"
     inkscape:cx="82.719173"
     inkscape:cy="125.44602"
     inkscape:window-width="1920"
     inkscape:window-height="1017"
     inkscape:window-x="1912"
     inkscape:window-y="-8"
     inkscape:window-maximized="1"
     inkscape:current-layer="layer1" />
  <defs
     id="defs1" />
  <g
     inkscape:label="Layer 1"
     inkscape:groupmode="layer"
     id="layer1"
     transform="translate(-80.19011,-107.41295)">
    <rect
       style="fill:#eef8f7;fill-opacity:1;stroke-width:0.264583"
       id="rect1"
       width="64.666794"
       height="64.666786"
       x="-144.8569"
       y="-172.07974"
       ry="13.249709"
       transform="scale(-1)" />
    <g
       id="g1"
       transform="matrix(0.82222898,0,0,0.82222898,20.003418,24.84285)">
      <g
         id="g11"
         transform="translate(50.589724,-21.18757)">
        <path
           id="rect10"
           style="fill:#4b735f;stroke-width:0.312158"
           d="m 29.600386,134.36793 6.646309,-5.76741 v 56.96339 l -6.646309,6.64506 z"
           sodipodi:nodetypes="ccccc" />
        <path
           id="rect10-0"
           style="fill:#4b735f;stroke-width:0.312158"
           d="m 88.499767,193.26731 5.767412,-6.6463 h -56.96091 l -6.647549,6.6463 z"
           sodipodi:nodetypes="ccccc" />
        <g
           id="g10"
           transform="rotate(-8.3936816,139.22539,248.37917)"
           style="display:none"
           sodipodi:insensitive="true">
          <path
             d="m 97.65724,141.50845 a 4.8790808,4.8790808 0 0 1 -2.127002,0.54157 4.8790808,4.8790808 0 0 1 -4.879289,-4.87929 4.8790808,4.8790808 0 0 1 1.80144,-3.67885 l -0.266133,-0.12764 a 5.3226337,5.3226337 0 0 0 -3.142961,4.69377 5.3226337,5.3226337 0 0 0 5.322673,5.32268 5.3226337,5.3226337 0 0 0 3.377055,-1.25884 z"
             style="fill:#4b735f;stroke-width:0.121391"
             id="path9" />
          <path
             d="m 98.266505,145.87717 a 9.1423006,9.1423006 0 0 1 -3.847827,0.94827 9.1423006,9.1423006 0 0 1 -9.142078,-9.14208 9.1423006,9.1423006 0 0 1 2.641183,-6.3593 l -0.848011,-0.40515 a 9.973419,9.973419 0 0 0 -4.805908,8.42688 9.973419,9.973419 0 0 0 9.973035,9.97355 9.973419,9.973419 0 0 0 6.19032,-2.29237 z"
             style="fill:#4b735f;stroke-width:0.227459"
             id="path8" />
          <path
             d="m 99.231304,152.79406 a 15.312751,15.312751 0 0 1 -7.303947,1.96629 15.312751,15.312751 0 0 1 -15.312761,-15.31276 15.312751,15.312751 0 0 1 4.939751,-11.16521 l -1.245919,-0.59583 a 16.70482,16.70482 0 0 0 -8.740035,14.54537 16.70482,16.70482 0 0 0 16.704407,16.70492 16.70482,16.70482 0 0 0 11.192081,-4.47104 z"
             style="fill:#4b735f;stroke-width:0.380979"
             id="path7" />
          <path
             d="m 100.29946,160.452 a 21.776199,21.776199 0 0 1 -12.542391,4.02404 21.776199,21.776199 0 0 1 -21.776449,-21.77542 21.776199,21.776199 0 0 1 9.084717,-17.52037 l -1.110526,-0.53072 a 23.755854,23.755854 0 0 0 -15.150497,22.01003 23.755854,23.755854 0 0 0 23.755656,23.75617 23.755854,23.755854 0 0 0 17.95911,-8.39225 z"
             style="fill:#4b735f;stroke-width:0.541789"
             id="path6" />
        </g>
      </g>
      <path
         d="m 138.23008,149.38412 a 24.13488,24.13488 0 0 1 -16.94959,6.97015 24.13488,24.13488 0 0 1 -24.134765,-24.13475 24.13488,24.13488 0 0 1 6.968875,-16.94895 25.15241,25.15241 0 0 0 -12.970607,21.93318 25.15241,25.15241 0 0 0 25.152257,25.15226 25.15241,25.15241 0 0 0 21.93383,-12.97189 z"
         style="fill:#4b735f;stroke-width:0.33056"
         id="path56" />
      <path
         d="m 139.84542,140.61523 a 19.136813,19.136813 0 0 1 -13.56652,5.74348 19.136813,19.136813 0 0 1 -19.13697,-19.13697 19.136813,19.136813 0 0 1 5.74349,-13.56716 19.943623,19.943623 0 0 0 -10.50239,17.51903 19.943623,19.943623 0 0 0 19.94336,19.94336 19.943623,19.943623 0 0 0 17.51903,-10.50174 z"
         style="fill:#4b735f;stroke-width:0.33056"
         id="path57" />
    </g>
  </g>
</svg>
